<svg width="24" height="24" viewBox="0 0 24 24" fill="none" xmlns="http://www.w3.org/2000/svg">
<path d="M8.66626 5.43046C8.66626 5.01279 8.75246 4.59922 8.91998 4.21335C9.0875 3.82748 9.33306 3.47687 9.64259 3.18153C9.95213 2.8862 10.3196 2.65193 10.724 2.4921C11.1285 2.33226 11.5619 2.25 11.9997 2.25C12.8837 2.25 13.7316 2.58508 14.3567 3.18153C14.9819 3.77798 15.3331 4.58695 15.3331 5.43046" stroke="white" stroke-width="2.11989" stroke-miterlimit="10"/>
<path d="M17.833 5.42236H6.16699V7.01228H17.833V5.42236Z" fill="white"/>
<path d="M17.8324 19.7341H6.16638V21.3241H17.8324V19.7341Z" fill="white"/>
<path d="M17.833 7.01233V21.3241H19.5V7.01233H17.833Z" fill="white"/>
<path d="M18.6665 6.21763L19.5001 7.0129H17.833V5.42236L18.6665 6.21763Z" fill="white"/>
<path d="M5.33351 6.21763L4.5 7.0129H6.16705V5.42236L5.33351 6.21763Z" fill="white"/>
<path d="M4.5 7.01236L4.5 21.3241H6.16638L6.16638 7.01236H4.5Z" fill="white"/>
<path d="M16.1659 7.01685H14.4995V8.60677H16.1659V7.01685Z" fill="white"/>
<path d="M9.49988 7.01685H7.8335V8.60677H9.49988V7.01685Z" fill="white"/>
</svg>
