<svg width="78" height="20" viewBox="0 0 78 20" fill="none" xmlns="http://www.w3.org/2000/svg">
<g clip-path="url(#clip0_360_98)">
<path d="M9.14103 9.47615H17.31V19.4459H15.3355L15.0308 17.2277H14.8389C13.3398 18.8893 11.3216 19.7201 8.78453 19.7201C6.11944 19.7201 3.98656 18.8253 2.38588 17.0357C0.785201 15.2461 -0.0100605 12.9456 9.60586e-05 10.1343C9.60586e-05 7.23764 0.871532 4.8224 2.6144 2.88859C4.35727 0.95477 6.61712 -0.00807428 9.39393 5.09955e-05C11.5126 5.09955e-05 13.2565 0.529209 14.6256 1.58753C15.972 2.59333 16.8876 4.07175 17.1881 5.72532H14.5159C14.207 4.71111 13.5623 3.83215 12.6877 3.23289C11.7138 2.58632 10.5622 2.26033 9.39393 2.30052C7.33011 2.30052 5.66849 3.03078 4.40907 4.4913C3.14966 5.95181 2.51995 7.82367 2.51995 10.1069C2.51995 12.2621 3.10903 14.0283 4.28719 15.4056C5.46536 16.7828 7.05791 17.4724 9.06485 17.4745C10.5296 17.522 11.9704 17.0944 13.1722 16.2557C14.2874 15.4431 14.845 14.2883 14.845 12.7913V11.475H9.14103V9.47615Z" fill="white"/>
<path d="M32.9471 12.3249C32.9471 12.4529 32.9288 12.7363 32.8922 13.172H22.6757C22.691 14.3887 23.132 15.5616 23.9219 16.4871C24.3039 16.9059 24.7731 17.2359 25.2963 17.4538C25.8196 17.6718 26.3843 17.7724 26.9506 17.7486C27.7581 17.775 28.5563 17.5699 29.2511 17.1574C29.8806 16.7661 30.3438 16.1564 30.5521 15.445H32.88C32.6321 16.7171 31.9002 17.8433 30.8386 18.5865C29.6935 19.3617 28.3327 19.7552 26.9506 19.7108C24.9945 19.7108 23.3958 19.0709 22.1547 17.7912C20.9135 16.5115 20.293 14.8265 20.293 12.7363C20.293 10.5648 20.9135 8.81177 22.1547 7.47719C22.7473 6.82934 23.472 6.3162 24.2799 5.97243C25.0879 5.62866 25.9601 5.46226 26.8379 5.48447C27.6499 5.46112 28.4578 5.6073 29.2101 5.91369C29.9624 6.22007 30.6426 6.67993 31.2072 7.26391C32.3692 8.44613 32.9491 10.1331 32.9471 12.3249ZM29.5558 8.53145C29.2066 8.16809 28.7844 7.88276 28.317 7.69423C27.8496 7.5057 27.3476 7.41823 26.844 7.43758C26.3234 7.42529 25.8058 7.5198 25.3232 7.71527C24.8405 7.91074 24.403 8.20303 24.0377 8.57411C23.2784 9.33516 22.8086 10.3374 22.7092 11.4078H30.6314C30.6585 10.346 30.273 9.31493 29.5558 8.53145V8.53145Z" fill="white"/>
<path d="M36.2073 19.4458V5.75271H38.3706L38.59 7.39503H38.7789C39.1788 6.78503 39.7294 6.28863 40.3775 5.95392C41.0256 5.61922 41.7491 5.45755 42.478 5.48458C44.2858 5.48458 45.527 6.28797 46.2014 7.89474H46.3659C47.2617 6.28797 48.6664 5.48458 50.5799 5.48458C51.1775 5.45621 51.7747 5.54962 52.3352 5.75914C52.8956 5.96865 53.4076 6.2899 53.8401 6.70337C54.6527 7.52605 55.0589 8.71336 55.0589 10.2653V19.4458H52.6518V10.7345C52.6518 9.71886 52.3867 8.93884 51.8566 8.39444C51.6016 8.13097 51.2947 7.9232 50.9554 7.78423C50.6161 7.64526 50.2517 7.5781 49.8852 7.58699C49.4662 7.57244 49.0494 7.65223 48.6654 7.82047C48.2815 7.98871 47.9402 8.2411 47.667 8.55898C47.0792 9.26824 46.7762 10.1708 46.8169 11.091V19.4458H44.4067V10.9143C44.4067 9.83769 44.1467 9.01196 43.6267 8.4371C43.3787 8.15689 43.0723 7.93446 42.729 7.78548C42.3858 7.63649 42.0141 7.56458 41.64 7.57481C41.2433 7.57463 40.8505 7.65318 40.4844 7.80591C40.1183 7.95863 39.7861 8.18249 39.5072 8.46452C38.8978 9.05868 38.5931 9.91184 38.5931 11.024V19.4336L36.2073 19.4458Z" fill="white"/>
<path d="M58.8281 19.4458V0H61.2109V19.4458H58.8281Z" fill="white"/>
<path d="M76.9301 17.773C77.2786 17.7625 77.6223 17.6892 77.9447 17.5566V19.2812C77.4376 19.479 76.8985 19.5823 76.3542 19.5859C74.7657 19.5859 73.8161 18.9369 73.5053 17.6389C72.4896 19.0283 70.9661 19.723 68.9348 19.723C67.586 19.723 66.4952 19.3899 65.6624 18.7236C64.8295 18.0573 64.4141 17.0843 64.4161 15.8046C64.39 15.2534 64.4913 14.7035 64.7122 14.1978C64.9331 13.692 65.2676 13.2441 65.6898 12.8886C66.5389 12.1838 67.6663 11.7592 69.0719 11.615L73.1549 11.2311V10.4632C73.1549 9.51259 72.9081 8.77218 72.4145 8.242C72.1391 7.9682 71.8088 7.75599 71.4453 7.61942C71.0818 7.48285 70.6935 7.42503 70.306 7.44979C68.6646 7.44979 67.6784 8.31716 67.3473 10.0519H64.9616C65.065 8.78453 65.648 7.60434 66.5917 6.75203C67.5302 5.90192 68.7703 5.47839 70.3029 5.47839C71.8914 5.47839 73.165 5.91614 74.1238 6.79164C75.0826 7.66714 75.563 8.90929 75.565 10.5181V16.2677C75.565 17.2732 76.016 17.773 76.9301 17.773ZM73.1518 14.1867V12.9679L69.8367 13.3091C69.052 13.3531 68.2938 13.609 67.6429 14.0495C67.3818 14.2405 67.1717 14.4926 67.0309 14.7837C66.8901 15.0749 66.823 15.3961 66.8354 15.7193C66.8119 16.0179 66.8621 16.3178 66.9817 16.5925C67.1012 16.8672 67.2864 17.1083 67.521 17.2946C68.0345 17.6491 68.6496 17.8267 69.273 17.8004C70.2564 17.8199 71.2174 17.5063 72.0001 16.9107C72.7659 16.3195 73.1498 15.4115 73.1518 14.1867V14.1867Z" fill="white"/>
</g>
<defs>
<clipPath id="clip0_360_98">
<rect width="77.9447" height="19.72" fill="white"/>
</clipPath>
</defs>
</svg>
