<svg width="674" height="73" viewBox="0 0 674 73" fill="none" xmlns="http://www.w3.org/2000/svg">
<g clip-path="url(#clip0_303_221)">
<path d="M30.02 39.12H56.81V71.84H50.33L49.33 64.56H48.7C43.78 70.0134 37.1567 72.74 28.83 72.74C20.0833 72.74 13.0833 69.8034 7.82998 63.93C2.57665 58.0567 -0.0466931 50.5067 -0.0400264 41.28C-0.0400264 31.7533 2.81998 23.8267 8.53998 17.5C14.26 11.1733 21.6766 8.01336 30.79 8.02003C37.7366 8.02003 43.4733 9.76003 48 13.24C52.4191 16.5366 55.4243 21.3857 56.41 26.81H47.6C46.5841 23.4825 44.4687 20.5985 41.6 18.63C38.3982 16.504 34.611 15.4339 30.77 15.57C24.0033 15.57 18.55 17.9667 14.41 22.7601C10.27 27.5534 8.20331 33.6967 8.20997 41.19C8.20997 48.2634 10.1433 54.06 14.01 58.58C17.8766 63.1 23.1033 65.3634 29.69 65.37C34.4978 65.531 39.2281 64.1274 43.17 61.37C46.83 58.7034 48.66 54.9134 48.66 50V45.67H29.96L30.02 39.12Z" fill="#202020"/>
<path d="M108.13 48.4699C108.13 48.8899 108.07 49.82 107.95 51.26H74.4201C74.4702 55.2501 75.9174 59.0965 78.5101 62.13C79.7638 63.5044 81.3035 64.5874 83.0208 65.3026C84.7382 66.0179 86.5914 66.3481 88.4501 66.2699C91.0818 66.3446 93.6813 65.6757 95.9501 64.3399C98.0136 63.0527 99.533 61.053 100.22 58.7199H107.86C107.066 62.8948 104.681 66.5983 101.21 69.05C97.452 71.594 92.986 72.8855 88.4501 72.74C82.0301 72.74 76.7868 70.6433 72.7201 66.45C68.6534 62.2566 66.6134 56.7133 66.6001 49.82C66.6001 42.6866 68.6401 36.9333 72.7201 32.56C74.662 30.4286 77.0395 28.7397 79.6914 27.6078C82.3434 26.476 85.2077 25.9276 88.0901 26C90.7531 25.9266 93.4022 26.4079 95.8691 27.4132C98.3361 28.4186 100.567 29.9261 102.42 31.8399C106.227 35.7266 108.13 41.2699 108.13 48.4699ZM96.9801 36.07C95.8371 34.8754 94.4538 33.9368 92.9213 33.3163C91.3889 32.6957 89.7422 32.4072 88.0901 32.4699C86.38 32.4288 84.6796 32.7386 83.0938 33.3802C81.5081 34.0217 80.0706 34.9814 78.8701 36.2C76.3817 38.7001 74.8403 41.988 74.5101 45.5H100.51C100.602 42.0176 99.3361 38.636 96.9801 36.07Z" fill="#202020"/>
<path d="M118.83 71.8399V26.8999H125.93L126.65 32.2899H127.27C128.58 30.2842 130.386 28.6511 132.513 27.5491C134.64 26.447 137.016 25.9134 139.41 25.9999C145.343 25.9999 149.417 28.6366 151.63 33.9099H152.17C155.11 28.6432 159.723 26.0066 166.01 25.9999C167.972 25.9068 169.932 26.2134 171.771 26.901C173.61 27.5886 175.291 28.643 176.71 29.9999C179.377 32.6999 180.71 36.5966 180.71 41.6899V71.7999H172.81V43.2599C172.81 39.9266 171.94 37.3633 170.2 35.5699C169.363 34.7053 168.356 34.0234 167.243 33.5673C166.129 33.1112 164.933 32.8907 163.73 32.9199C162.355 32.8721 160.987 33.134 159.727 33.6862C158.467 34.2383 157.347 35.0667 156.45 36.1099C154.519 38.4403 153.524 41.4063 153.66 44.4299V71.8399H145.75V43.8899C145.75 40.3499 144.897 37.6366 143.19 35.7499C142.376 34.8303 141.371 34.1003 140.244 33.6113C139.118 33.1224 137.898 32.8864 136.67 32.9199C135.368 32.9204 134.08 33.1788 132.878 33.6799C131.677 34.1811 130.586 34.9152 129.67 35.8399C127.67 37.8399 126.62 40.5899 126.62 44.2499V71.8399H118.83Z" fill="#202020"/>
<path d="M193.07 71.84V8.02002H200.89V71.84H193.07Z" fill="#202020"/>
<path d="M252.48 66.36C253.624 66.3217 254.752 66.0778 255.81 65.64V71.3C254.146 71.9492 252.376 72.2882 250.59 72.3C245.383 72.3 242.267 70.1733 241.24 65.92C237.907 70.4666 232.907 72.7433 226.24 72.75C221.813 72.75 218.233 71.6566 215.5 69.47C212.767 67.2833 211.403 64.0933 211.41 59.9C211.323 58.0892 211.654 56.2826 212.379 54.621C213.104 52.9593 214.203 51.4875 215.59 50.32C218.793 47.8554 222.657 46.4002 226.69 46.14L240.09 44.88V42.37C240.09 39.25 239.28 36.83 237.66 35.09C236.754 34.1825 235.664 33.4793 234.463 33.0275C233.263 32.5756 231.98 32.3855 230.7 32.47C225.313 32.47 222.077 35.3167 220.99 41.01H213.2C213.541 36.8511 215.455 32.9785 218.55 30.18C221.63 27.39 225.7 26 230.73 26C235.943 26 240.123 27.4367 243.27 30.31C246.417 33.1833 247.99 37.26 247.99 42.54V61.41C247.99 64.67 249.48 66.36 252.48 66.36ZM240.08 54.58V50.67L229.2 51.67C226.612 51.8087 224.111 52.6449 221.96 54.09C221.102 54.7181 220.412 55.5472 219.95 56.5045C219.488 57.4617 219.268 58.5178 219.31 59.58C219.234 60.5585 219.4 61.5406 219.792 62.4402C220.185 63.3399 220.791 64.1295 221.56 64.74C223.244 65.9072 225.263 66.4935 227.31 66.41C230.537 66.4692 233.689 65.4407 236.26 63.49C238.8 61.5633 240.073 58.5933 240.08 54.58Z" fill="#202020"/>
<path d="M325.82 16.4699H295.44V37.2299H321.96V44.4299H295.44V71.8399H287.26V8.91992H325.82V16.4699Z" fill="#202020"/>
<path d="M371.7 65.73H372.87V71.84H369.28C364.84 71.84 362.173 69.9233 361.28 66.09C357.8 70.5233 352.857 72.74 346.45 72.74C342.01 72.74 338.43 71.6466 335.71 69.46C332.99 67.2733 331.627 64.0833 331.62 59.89C331.53 58.0789 331.861 56.2716 332.586 54.6096C333.311 52.9476 334.411 51.476 335.8 50.31C339.001 47.8422 342.866 46.3866 346.9 46.13L360.29 44.87V42.36C360.29 39.24 359.48 36.82 357.86 35.08C356.957 34.1796 355.873 33.4813 354.68 33.0313C353.487 32.5814 352.212 32.39 350.94 32.47C345.547 32.47 342.31 35.3167 341.23 41.01H333.41C333.736 36.8597 335.627 32.9883 338.7 30.18C341.787 27.3933 345.847 26 350.88 26C356.087 26 360.267 27.4367 363.42 30.31C366.573 33.1833 368.147 37.26 368.14 42.54V62.04C368.153 64.5 369.34 65.73 371.7 65.73ZM360.29 54.58V50.67L349.37 51.67C346.785 51.8085 344.287 52.6448 342.14 54.09C341.28 54.7162 340.589 55.545 340.127 56.5027C339.664 57.4605 339.446 58.5174 339.49 59.58C339.413 60.5576 339.577 61.5392 339.968 62.4388C340.358 63.3383 340.963 64.1284 341.73 64.74C343.417 65.9086 345.439 66.4949 347.49 66.41C350.713 66.4677 353.862 65.4392 356.43 63.49C358.97 61.5633 360.243 58.5933 360.25 54.58H360.29Z" fill="#202020"/>
<path d="M403.75 26C406.545 25.9177 409.324 26.4459 411.894 27.5478C414.464 28.6496 416.763 30.2987 418.63 32.38C422.49 36.64 424.42 42.2733 424.42 49.28C424.42 56.2867 422.49 61.9333 418.63 66.22C416.786 68.3392 414.495 70.0231 411.922 71.1505C409.349 72.278 406.558 72.8208 403.75 72.74C400.92 72.8436 398.11 72.2305 395.58 70.9579C393.051 69.6852 390.884 67.794 389.28 65.46H388.7L387.98 71.84H381.51V8.02002H389.33V32.83C392.597 28.2833 397.403 26.0067 403.75 26ZM402.75 65.82C404.657 65.8731 406.551 65.4866 408.285 64.6907C410.019 63.8948 411.547 62.7107 412.75 61.23C415.33 58.1833 416.617 54.2 416.61 49.28C416.603 44.36 415.3 40.42 412.7 37.46C411.489 35.9913 409.959 34.8188 408.226 34.032C406.493 33.2451 404.603 32.8648 402.7 32.92C400.84 32.8629 398.993 33.2441 397.308 34.0327C395.623 34.8214 394.147 35.9955 393 37.46C390.54 40.4933 389.31 44.4333 389.31 49.28C389.31 54.2533 390.54 58.2533 393 61.28C394.155 62.7511 395.641 63.9289 397.337 64.7177C399.033 65.5066 400.891 65.8843 402.76 65.82H402.75Z" fill="#202020"/>
<path d="M434.85 71.84V26.9H441.95L442.67 33.1H443.3C444.472 30.9832 446.135 29.1791 448.15 27.84C450.07 26.6133 452.737 26 456.15 26H458.76V33.91C457.432 33.7698 456.096 33.7097 454.76 33.73C453.065 33.6384 451.373 33.9537 449.825 34.6496C448.276 35.3455 446.917 36.4017 445.86 37.73C443.76 40.3966 442.71 43.9166 442.71 48.29V71.84H434.85Z" fill="#202020"/>
<path d="M470.53 19.6699C469.838 19.6771 469.151 19.5455 468.51 19.2827C467.869 19.0199 467.288 18.6313 466.8 18.1399C466.298 17.6665 465.899 17.0942 465.629 16.4592C465.359 15.8241 465.223 15.14 465.23 14.4499C465.221 13.7668 465.356 13.0894 465.626 12.4621C465.897 11.8349 466.297 11.2718 466.8 10.8099C467.801 9.84674 469.141 9.31526 470.53 9.32988C471.198 9.32336 471.861 9.45098 472.48 9.70519C473.098 9.9594 473.659 10.335 474.13 10.8099C474.624 11.2769 475.015 11.8418 475.279 12.4686C475.542 13.0953 475.672 13.7701 475.66 14.4499C475.672 15.1371 475.543 15.8194 475.279 16.4543C475.016 17.0892 474.625 17.663 474.13 18.1399C473.666 18.627 473.107 19.0141 472.488 19.2772C471.869 19.5403 471.203 19.674 470.53 19.6699ZM466.53 71.7999V26.8999H474.35V71.8399L466.53 71.7999Z" fill="#202020"/>
<path d="M524.37 26.9L505.95 45.05L524.37 71.84H515.57L500.57 50.36L494.46 56.36V71.82H486.64V8.02002H494.46V46.22H495.09L514.78 26.9H524.37Z" fill="#202020"/>
<path d="M569.22 48.47C569.22 48.89 569.16 49.82 569.04 51.26H535.52C535.565 55.2511 537.013 59.0992 539.61 62.13C540.862 63.5042 542.4 64.5871 544.115 65.3024C545.831 66.0177 547.683 66.348 549.54 66.27C552.172 66.3479 554.772 65.6788 557.04 64.34C559.104 63.0528 560.623 61.053 561.31 58.72H568.95C568.159 62.8965 565.774 66.6013 562.3 69.05C558.542 71.5953 554.076 72.8869 549.54 72.74C543.127 72.74 537.883 70.6434 533.81 66.45C529.737 62.2567 527.7 56.7134 527.7 49.82C527.7 42.6867 529.737 36.9333 533.81 32.56C535.753 30.4296 538.13 28.7415 540.782 27.6097C543.434 26.4779 546.298 25.929 549.18 26C551.844 25.9277 554.495 26.4094 556.963 27.4147C559.431 28.42 561.664 29.9268 563.52 31.84C567.32 35.7266 569.22 41.27 569.22 48.47ZM558.08 36.07C556.935 34.8757 555.549 33.9374 554.016 33.3169C552.482 32.6964 550.833 32.4078 549.18 32.47C547.471 32.4279 545.772 32.7372 544.188 33.3789C542.603 34.0205 541.168 34.9807 539.97 36.2C537.478 38.6978 535.936 41.9869 535.61 45.5H561.61C561.702 42.0177 560.436 38.6361 558.08 36.07Z" fill="#202020"/>
<path d="M579.92 71.84V26.9H587.02L587.74 33.1H588.37C589.539 30.9811 591.203 29.1764 593.22 27.84C595.14 26.6133 597.807 26 601.22 26H603.83V33.91C602.501 33.77 601.166 33.7099 599.83 33.73C598.137 33.6401 596.446 33.9562 594.9 34.652C593.354 35.3478 591.996 36.4031 590.94 37.73C588.84 40.3966 587.79 43.9166 587.79 48.29V71.84H579.92Z" fill="#202020"/>
<path d="M626.75 72.74C621.183 72.74 616.913 71.4067 613.94 68.74C612.455 67.3971 611.261 65.7632 610.434 63.9397C609.606 62.1162 609.162 60.1421 609.13 58.14H616.77C617.31 63.7133 620.643 66.5 626.77 66.5C628.883 66.5817 630.972 66.0316 632.77 64.92C633.545 64.4127 634.173 63.7104 634.591 62.8837C635.008 62.0569 635.201 61.1348 635.15 60.21C635.195 59.2172 634.993 58.2287 634.562 57.3333C634.131 56.4379 633.484 55.6636 632.68 55.08C630.605 53.6872 628.309 52.656 625.89 52.03L622.83 51.22C621.397 50.8219 619.988 50.3411 618.61 49.78C617.274 49.2036 615.997 48.4969 614.8 47.67C613.466 46.766 612.396 45.5236 611.7 44.07C610.951 42.4337 610.582 40.6492 610.62 38.85C610.563 37.0496 610.937 35.2617 611.711 33.6353C612.485 32.0088 613.637 30.591 615.07 29.5C618.141 27.1338 621.934 25.8978 625.81 26C630.843 26 634.74 27.2566 637.5 29.77C638.808 30.9079 639.873 32.2991 640.629 33.8597C641.385 35.4202 641.818 37.1178 641.9 38.85H634.26C634.194 37.9179 633.936 37.0094 633.502 36.1817C633.069 35.354 632.469 34.6248 631.74 34.04C630.071 32.7576 628.003 32.1059 625.9 32.2C623.93 32.1253 621.988 32.6939 620.37 33.82C619.645 34.3553 619.065 35.0623 618.681 35.8774C618.297 36.6925 618.121 37.5903 618.17 38.49C618.124 39.4288 618.349 40.3611 618.819 41.1751C619.289 41.9892 619.984 42.6505 620.82 43.08C621.629 43.5597 622.471 43.9808 623.34 44.34C624.09 44.64 625.18 45 626.62 45.41L629.5 46.31C632.998 47.1617 636.265 48.7732 639.07 51.03C641.497 53.0966 642.71 56.0966 642.71 60.03C642.71 64.2233 641.21 67.3833 638.21 69.51C635.21 71.6367 631.39 72.7133 626.75 72.74Z" fill="#202020"/>
<path d="M660.57 26.82C657.464 26.822 654.453 25.7463 652.051 23.7763C649.649 21.8063 648.005 19.0641 647.399 16.0173C646.793 12.9706 647.263 9.80798 648.729 7.06897C650.194 4.32996 652.564 2.1842 655.435 0.997617C658.306 -0.188964 661.5 -0.342871 664.471 0.562193C667.443 1.46726 670.009 3.37521 671.731 5.96063C673.453 8.54605 674.224 11.6488 673.914 14.7397C673.604 17.8306 672.231 20.7182 670.03 22.91C668.802 24.1708 667.33 25.1679 665.703 25.8401C664.077 26.5124 662.33 26.8459 660.57 26.82ZM660.57 24.66C662.425 24.6764 664.255 24.2338 665.898 23.3716C667.541 22.5094 668.945 21.2543 669.985 19.7182C671.025 18.1821 671.669 16.4126 671.86 14.5673C672.051 12.722 671.782 10.8581 671.078 9.14172C670.374 7.42531 669.257 5.90962 667.825 4.72961C666.394 3.5496 664.693 2.7419 662.874 2.37845C661.054 2.01499 659.174 2.10706 657.399 2.64645C655.624 3.18584 654.009 4.15579 652.7 5.46997C650.605 7.57939 649.429 10.4318 649.429 13.405C649.429 16.3781 650.605 19.2305 652.7 21.34C653.709 22.4027 654.925 23.2467 656.274 23.8196C657.623 24.3924 659.075 24.6819 660.54 24.67L660.57 24.66ZM666.19 15.79C666.14 16.4246 665.953 17.0406 665.64 17.5951C665.327 18.1496 664.897 18.6291 664.38 19C663.304 19.7752 662.006 20.1789 660.68 20.15C659.844 20.1902 659.01 20.0483 658.235 19.7341C657.459 19.4198 656.762 18.9407 656.19 18.33C655.101 16.9422 654.509 15.2291 654.509 13.465C654.509 11.7009 655.101 9.98774 656.19 8.59997C656.734 7.99261 657.405 7.51146 658.154 7.19018C658.904 6.86891 659.715 6.71528 660.53 6.73999C661.832 6.69446 663.11 7.08903 664.16 7.85998C664.669 8.26947 665.091 8.77697 665.4 9.35242C665.709 9.92786 665.9 10.5595 665.96 11.21H663.4C663.283 10.5586 662.929 9.97341 662.407 9.56723C661.884 9.16104 661.23 8.96254 660.57 9.00998C660.089 9.00028 659.613 9.10926 659.184 9.32727C658.755 9.54528 658.386 9.86562 658.11 10.26C657.457 11.2029 657.13 12.3339 657.18 13.48C657.11 14.6283 657.439 15.7656 658.11 16.7C658.414 17.087 658.805 17.396 659.252 17.6012C659.699 17.8065 660.189 17.902 660.68 17.88C661.357 17.9057 662.024 17.7013 662.57 17.3C663.062 16.9219 663.414 16.3905 663.57 15.79H666.19Z" fill="#202020"/>
</g>
<defs>
<clipPath id="clip0_303_221">
<rect width="673.98" height="72.74" fill="white"/>
</clipPath>
</defs>
</svg>
