<svg width="24" height="24" viewBox="0 0 24 24" fill="none" xmlns="http://www.w3.org/2000/svg">
<path d="M15.6414 13.7689L20.4507 18.5783V20.8274L14.5165 14.8938L15.6414 13.7689Z" fill="white"/>
<path d="M10.9056 4.59239C12.3812 4.59403 13.7959 5.18093 14.8393 6.22434C15.8827 7.26775 16.4696 8.68244 16.4712 10.158C16.4696 11.6336 15.8827 13.0483 14.8393 14.0917C13.7959 15.1351 12.3812 15.7221 10.9056 15.7237C9.42998 15.7221 8.01529 15.1351 6.97188 14.0917C5.92848 13.0483 5.34157 11.6336 5.33993 10.158C5.34157 8.68244 5.92848 7.26775 6.97188 6.22434C8.01529 5.18093 9.42998 4.59403 10.9056 4.59239ZM10.9056 3.00247C9.00781 3.00247 7.18776 3.75636 5.84583 5.09829C4.5039 6.44022 3.75 8.26027 3.75 10.158C3.74992 11.0978 3.93495 12.0283 4.29452 12.8965C4.65408 13.7648 5.18114 14.5537 5.8456 15.2182C6.51007 15.8827 7.29892 16.4098 8.16711 16.7695C9.03531 17.1291 9.96585 17.3142 10.9056 17.3142C11.8453 17.3142 12.7758 17.1291 13.644 16.7695C14.5122 16.4098 15.3011 15.8827 15.9656 15.2182C16.63 14.5537 17.1571 13.7648 17.5166 12.8965C17.8762 12.0283 18.0612 11.0978 18.0611 10.158C18.0615 9.21815 17.8766 8.2874 17.5172 7.41897C17.1577 6.55053 16.6307 5.76141 15.9662 5.09669C15.3017 4.43197 14.5128 3.90468 13.6445 3.54492C12.7762 3.18517 11.8455 3 10.9056 3V3.00247Z" fill="white"/>
</svg>
